<?xml version="1.0" encoding="utf-8"?>
<!-- Generator: Adobe Illustrator 15.0.0, SVG Export Plug-In . SVG Version: 6.00 Build 0)  -->
<!DOCTYPE svg PUBLIC "-//W3C//DTD SVG 1.1//EN" "http://www.w3.org/Graphics/SVG/1.1/DTD/svg11.dtd">
<svg version="1.1" id="レイヤー_1" xmlns="http://www.w3.org/2000/svg" xmlns:xlink="http://www.w3.org/1999/xlink" x="0px"
	 y="0px" width="510.236px" height="510.236px" viewBox="0 0 510.236 510.236" enable-background="new 0 0 510.236 510.236"
	 xml:space="preserve">
<g>
	<circle fill-rule="evenodd" clip-rule="evenodd" fill="#FFFFFF" cx="255.118" cy="255.118" r="240"/>
	<path fill-rule="evenodd" clip-rule="evenodd" fill="#FF3366" d="M15.118,255.118c0,132.55,107.45,240,240,240s240-107.45,240-240
		c0-34.13-7.13-66.6-19.97-96h-134.75l-34.31,59h60.16h2.06l17.44-29l56.18,51l-115.81,49l19.59-34h-61.29l-43.52,75.17
		c-30.15,51.88-65.81,77.83-106.97,77.83c-21.53,0-38.12-6.97-49.79-20.89c-11.68-13.94-15.64-31.49-11.93-52.67
		c2.91-16.47,9.86-32.22,20.88-47.25c11-15.03,25-27.97,41.98-38.83c14.38-9.06,30.52-16.27,48.46-21.59
		c17.92-5.32,35.14-7.99,51.65-7.99l22.14-0.62l6.89-0.16l43.33-75.52l2.49-4.37c3.53-6.47,7.32-10.77,11.4-12.91
		c4.08-2.12,10.5-3.2,19.25-3.2h114.25c-43.02-64.51-116.45-107-199.81-107C122.568,15.118,15.118,122.568,15.118,255.118z
		 M208.398,313.988l34.14-58.87h-8.44c-30.84,0-56.75,7.11-77.68,21.31c-23.44,15.89-36.92,33.83-40.44,53.81
		c-1.91,10.72-0.23,19.72,5,26.99c5.23,7.25,12.7,10.89,22.41,10.89C165.888,368.118,187.558,350.068,208.398,313.988z"/>
</g>
</svg>
